# xmcd
#
# Track frame offsets:
#	150
#	17958
#	38093
#	56045
#	70560
#	87827
#	102807
#	120882
#	137982
#	155082
#	172182
#	187760
#	203885
#	223310
#	240185
#	258635
#	276916
#
# Disc length: 3926 seconds
#
# Revision: 1
# Processed by: cddbd v1.5.2PL0 Copyright (c) Steve Scherf et al.
# Submitted via: audiograbber 1.83.01
#
DISCID=f20f5411
DTITLE=Carrie Underwood - QH1006
DYEAR=1900
DGENRE=
TTITLE0=Carrie Underwood - Cowboy Casanova
TTITLE1=Carrie Underwood - Temporary Home
TTITLE2=Carrie Underwood - Mama's Song
TTITLE3=Carrie Underwood - Change
TTITLE4=Carrie Underwood - Home Sweet Home
TTITLE5=Carrie Underwood - Before He Cheats
TTITLE6=Carrie Underwood - Don't Forget To Remember Me
TTITLE7=Carrie Underwood - Inside Your Heaven
TTITLE8=Carrie Underwood - Jesus, Take The Wheel
TTITLE9=Carrie Underwood - So Small
TTITLE10=Carrie Underwood - I'll Stand By You
TTITLE11=Carrie Underwood - All American Girl
TTITLE12=Carrie Underwood - I Told You So
TTITLE13=Carrie Underwood - Some Hearts
TTITLE14=Carrie Underwood - Starts With Goodbye
TTITLE15=Carrie Underwood - Last Name
TTITLE16=Carrie Underwood - While We're Young And Beautiful
EXTD=
EXTT0=
EXTT1=
EXTT2=
EXTT3=
EXTT4=
EXTT5=
EXTT6=
EXTT7=
EXTT8=
EXTT9=
EXTT10=
EXTT11=
EXTT12=
EXTT13=
EXTT14=
EXTT15=
EXTT16=
PLAYORDER=
